# xmcd
#
# Track frame offsets: 
#        225
#        3978
#        24172
#        39328
#        47106
#        56725
#        65173
#        82585
#        99943
#        115665
#        124149
#        136226
#        152803
#        167806
#        180859
#        189486
#        197829
#        210046
#        225766
#        239382
#        254348
#        269176
#        298552
#        313858
#
# Disc length: 4392 seconds
#
# Revision: 1
# Processed by: cddbd v1.5.2PL0 Copyright (c) Steve Scherf et al.
# Submitted via: ExactAudioCopyFreeDBPlugin 1.0
#
DISCID=3c112518
DTITLE=Bronco - Hasta Siempre..CD-1
DYEAR=2002
DGENRE=Country
TTITLE0=Presentación
TTITLE1=Sergio el bailador
TTITLE2=Cumbia triste
TTITLE3=Que te han visto llorar
TTITLE4=No nos vamos a olvidar
TTITLE5=Sed
TTITLE6=Corazón bandido
TTITLE7=Si te vuelves a enamorar
TTITLE8=Amor sin amor
TTITLE9=Un golpe más
TTITLE10=Piropero
TTITLE11=Todo con ella
TTITLE12=Bailando jalao
TTITLE13=Aunque no me quieras
TTITLE14=Un fin de semana
TTITLE15=Arráncame la vida
TTITLE16=Lo tengo decidido
TTITLE17=Dos mujeres un camino
TTITLE18=Tres heridas
TTITLE19=Cuatro caballos
TTITLE20=Cinco locos
TTITLE21=Naila
TTITLE22=Esa mujer
TTITLE23=Botas y somrero
EXTD=YEAR: 2002
EXTT0=
EXTT1=
EXTT2=
EXTT3=
EXTT4=
EXTT5=
EXTT6=
EXTT7=
EXTT8=
EXTT9=
EXTT10=
EXTT11=
EXTT12=
EXTT13=
EXTT14=
EXTT15=
EXTT16=
EXTT17=
EXTT18=
EXTT19=
EXTT20=
EXTT21=
EXTT22=
EXTT23=
PLAYORDER=
